<?xml version="1.0" encoding="utf-8"?>
<!-- Generator: Adobe Illustrator 21.0.2, SVG Export Plug-In . SVG Version: 6.00 Build 0)  -->
<svg version="1.1" id="Слой_1" xmlns="http://www.w3.org/2000/svg" xmlns:xlink="http://www.w3.org/1999/xlink" x="0px" y="0px"
	 viewBox="0 0 30 30" style="enable-background:new 0 0 30 30;" xml:space="preserve">
<style type="text/css">
	.st0{fill:none;stroke:white;}
	.st1{fill:none;stroke:white;stroke-linecap:round;}
</style>
<g>
	<path class="st0" d="M29.5,15C29.5,7,23,0.5,15,0.5C7,0.5,0.5,7,0.5,15S7,29.5,15,29.5c2.7,0,5.3-0.7,7.5-2.1
		c1.7,0.3,3.5,0.7,5.2,1l0.7,0.1l-0.1-0.7c-0.3-1.7-0.7-3.4-1-5.1C28.7,20.4,29.5,17.7,29.5,15z"/>
	<path class="st1" d="M25.5,10.6c-1.6-3.4-4.7-6-8.4-6.9"/>
	<circle class="st0" cx="9.4" cy="15" r="1.4"/>
	<circle class="st0" cx="15" cy="15" r="1.4"/>
	<circle class="st0" cx="20.6" cy="15" r="1.4"/>
</g>
</svg>
