<?xml version="1.0" encoding="utf-8"?>
<!-- Generator: Adobe Illustrator 21.0.2, SVG Export Plug-In . SVG Version: 6.00 Build 0)  -->
<svg version="1.1" id="Слой_1" xmlns="http://www.w3.org/2000/svg" xmlns:xlink="http://www.w3.org/1999/xlink" x="0px" y="0px"
	 viewBox="0 0 35 30" style="enable-background:new 0 0 35 30;" xml:space="preserve">
<style type="text/css">
	.st0{fill:#FFFFFF;}
	.st1{fill:none;stroke:#FFFFFF;}
</style>
<g>
	<g>
		<path class="st0" d="M24.3,20.7c-2.9-2.4-6.1-4.1-7-4.5v-4.4c0.6-0.5,1-1.3,1-2.1V4.9c0-2.7-2.2-4.9-4.9-4.9h-1.1
			C9.7,0,7.5,2.2,7.5,4.9v4.9c0,0.8,0.4,1.6,1,2.1v4.4c-0.9,0.4-4,2.1-7,4.5c-0.7,0.5-1,1.3-1,2.2v3.4c0,0.2,0.2,0.5,0.5,0.5
			c0.2,0,0.5-0.2,0.5-0.5v-3.4c0-0.6,0.3-1.1,0.7-1.5C5.1,19,8.4,17.3,9,17c0.2-0.1,0.4-0.3,0.4-0.6v-4.8c0-0.1-0.1-0.3-0.2-0.4
			c-0.5-0.3-0.8-0.9-0.8-1.5V4.9c0-2.2,1.8-4,4-4h1.1c2.2,0,4,1.8,4,4v4.9c0,0.6-0.3,1.1-0.8,1.5c-0.1,0.1-0.2,0.2-0.2,0.4v4.7
			c0,0.3,0.1,0.5,0.4,0.6c0.6,0.3,3.9,2,6.9,4.4c0.4,0.4,0.7,0.9,0.7,1.5v3.4c0,0.2,0.2,0.5,0.5,0.5s0.5-0.2,0.5-0.5v-3.4
			C25.3,22.1,24.9,21.3,24.3,20.7"/>
		<path class="st0" d="M33.7,21.7c-2.3-1.9-4.9-3.2-5.6-3.6v-3.5h0c0.5-0.4,0.8-1.1,0.8-1.7v-4c0-2.2-1.8-4.1-4.1-4.1h-0.9
			c-2.2,0-4.1,1.8-4.1,4.1v4c0,0.7,0.3,1.3,0.8,1.7v2.7c0,0.2,0.2,0.5,0.5,0.5c0.2,0,0.5-0.2,0.5-0.5v-2.9c0-0.2-0.1-0.3-0.2-0.4
			c-0.4-0.3-0.6-0.7-0.6-1.1v-4c0-1.7,1.4-3.2,3.2-3.2h0.9c1.7,0,3.2,1.4,3.2,3.2v4c0,0.5-0.2,0.9-0.6,1.1c-0.1,0.1-0.2,0.2-0.2,0.4
			v3.9c0,0.2,0.1,0.5,0.4,0.6c0.5,0.2,3.2,1.6,5.6,3.6c0.3,0.3,0.5,0.7,0.5,1.2v2.8c0,0.2,0.2,0.5,0.5,0.5s0.5-0.2,0.5-0.5v-2.7
			C34.5,22.9,34.2,22.2,33.7,21.7"/>
		<path class="st1" d="M17.5,23.8c0-1.4-1.1-2.6-2.6-2.6c-0.8,0-1.6,0.4-2,1c-0.5-0.6-1.2-1-2-1c-1.4,0-2.6,1.1-2.6,2.6
			c0,2.6,4.6,5.6,4.6,5.6S17.5,26.3,17.5,23.8z"/>
	</g>
</g>
</svg>
