<?xml version="1.0" encoding="utf-8"?>
<!-- Generator: Adobe Illustrator 21.0.2, SVG Export Plug-In . SVG Version: 6.00 Build 0)  -->
<svg version="1.1" id="Слой_1" xmlns="http://www.w3.org/2000/svg" xmlns:xlink="http://www.w3.org/1999/xlink" x="0px" y="0px"
	 viewBox="0 0 45 45" style="enable-background:new 0 0 45 45;" xml:space="preserve">
<style type="text/css">
	.st0{fill:#63CAE2;}
	.st1{fill:#FFFFFF;}
</style>
<g>
	<g>
		<path class="st0" d="M22.5,45C34.9,45,45,34.9,45,22.5S34.9,0,22.5,0S0,10.1,0,22.5S10.1,45,22.5,45"/>
		<path class="st1" d="M35,16.2v12.5l-7-6.3L35,16.2z M15.5,16.2l2.8,2.5c0.1,0.1,0.2,0.1,0.3,0.1c0.1,0,0.3-0.1,0.4-0.2
			c0.2-0.2,0.2-0.5,0-0.7l-2.7-2.4h17.8l-8.9,8l-4.9-4.4c-0.2-0.2-0.5-0.2-0.7,0c-0.2,0.2-0.2,0.5,0,0.7l2.9,2.6l0.8,0.7l1.6,1.4
			c0.1,0.1,0.2,0.1,0.3,0.1s0.2,0,0.3-0.1l1.6-1.4l6.9,6.2h-1.5c-0.3,0-0.5,0.2-0.5,0.5c0,0.3,0.2,0.5,0.5,0.5h2.8
			c0.3,0,0.5-0.2,0.5-0.5V15.1c0-0.3-0.2-0.5-0.5-0.5H15c-0.3,0-0.5,0.2-0.5,0.5L15.5,16.2z M14.5,29.9c0,0.3,0.2,0.5,0.5,0.5H31
			c0.3,0,0.5-0.2,0.5-0.5c0-0.3-0.2-0.5-0.5-0.5H16.4H15C14.8,29.4,14.5,29.6,14.5,29.9"/>
		<path class="st1" d="M18.6,22.4h-7.1c-0.3,0-0.5,0.2-0.5,0.5c0,0.3,0.2,0.5,0.5,0.5h7.1c0.3,0,0.5-0.2,0.5-0.5
			C19.1,22.6,18.9,22.4,18.6,22.4"/>
		<path class="st1" d="M9.5,20.3h6.7c0.3,0,0.5-0.2,0.5-0.5c0-0.3-0.2-0.5-0.5-0.5H9.5c-0.3,0-0.5,0.2-0.5,0.5
			C9,20.1,9.2,20.3,9.5,20.3"/>
		<path class="st1" d="M17.2,25.4h-0.4c-0.3,0-0.5,0.2-0.5,0.5c0,0.3,0.2,0.5,0.5,0.5h0.4c0.3,0,0.5-0.2,0.5-0.5
			C17.7,25.7,17.5,25.4,17.2,25.4"/>
		<path class="st1" d="M15.1,25.4H9.5C9.2,25.4,9,25.7,9,26c0,0.3,0.2,0.5,0.5,0.5h5.6c0.3,0,0.5-0.2,0.5-0.5
			C15.6,25.7,15.4,25.4,15.1,25.4"/>
	</g>
</g>
</svg>
